name analog
datacolumns 19
datarows 69
range 0.328 0.362
endheader
time	ground_force_vx	ground_force_vy	ground_force_vz	ground_force_px	ground_force_py	ground_force_pz	l_ground_force_vx	l_ground_force_vy	l_ground_force_vz	l_ground_force_px	l_ground_force_py	l_ground_force_pz	ground_torque_x	ground_torque_y	ground_torque_z	l_ground_torque_x	l_ground_torque_y	l_ground_torque_z
0.328	-0.0	-0.0	-0.0	-0.0	-0.0	-0.0	3.3384311199188232	-5.443508625030518	-495.73968505859375	-0.0	-0.0	-0.0	-0.0	-0.0	-0.0	163521.390625	-28108.16015625	-1185.56982421875
0.3285	-0.0	-0.0	-0.0	-0.0	-0.0	-0.0	3.898433208465576	-4.337402820587158	-497.1728820800781	-0.0	-0.0	-0.0	-0.0	-0.0	-0.0	164211.53125	-27984.849609375	-974.0047607421876
0.329	-0.0	-0.0	-0.0	-0.0	-0.0	-0.0	4.920965194702148	-3.922897100448608	-498.4432678222656	-0.0	-0.0	-0.0	-0.0	-0.0	-0.0	164790.921875	-27982.818359375	-695.4320678710938
0.3295	-0.0	-0.0	-0.0	-0.0	-0.0	-0.0	5.088066577911377	-3.527768611907959	-499.0820007324219	-0.0	-0.0	-0.0	-0.0	-0.0	-0.0	165449.421875	-28065.509765625	-604.5339965820312
0.33	-0.0	-0.0	-0.0	-0.0	-0.0	-0.0	4.665189266204834	-2.862616539001465	-501.361083984375	-0.0	-0.0	-0.0	-0.0	-0.0	-0.0	166311.078125	-28245.75	-512.1422119140625
0.3305	-0.0	-0.0	-0.0	-0.0	-0.0	-0.0	4.305151462554932	-1.2779978513717651	-502.6564636230469	-0.0	-0.0	-0.0	-0.0	-0.0	-0.0	167113.5	-27854.826171875	-721.344970703125
0.331	-0.0	-0.0	-0.0	-0.0	-0.0	-0.0	3.814563751220703	-0.0414174608886241	-501.5888366699219	-0.0	-0.0	-0.0	-0.0	-0.0	-0.0	167518.5625	-27669.7890625	-990.1215209960938
0.3315	-0.0	-0.0	-0.0	-0.0	-0.0	-0.0	3.271022319793701	0.4773488342761993	-501.589599609375	-0.0	-0.0	-0.0	-0.0	-0.0	-0.0	167704.78125	-27552.521484375	-1124.785888671875
0.332	-0.0	-0.0	-0.0	-0.0	-0.0	-0.0	2.9631547927856445	1.0128265619277954	-501.73089599609375	-0.0	-0.0	-0.0	-0.0	-0.0	-0.0	167794.9375	-27317.109375	-1174.1893310546875
0.3325	-0.0	-0.0	-0.0	-0.0	-0.0	-0.0	2.395191192626953	1.3601741790771484	-500.82318115234375	-0.0	-0.0	-0.0	-0.0	-0.0	-0.0	167792.90625	-27162.748046875	-1166.720947265625
0.333	-0.0	-0.0	-0.0	-0.0	-0.0	-0.0	1.922302722930908	1.5778263807296753	-502.6628723144531	-0.0	-0.0	-0.0	-0.0	-0.0	-0.0	168139.0	-26967.455078125	-1287.61328125
0.3335	-0.0	-0.0	-0.0	-0.0	-0.0	-0.0	1.2770624160766602	2.2552707195281982	-502.3806762695313	-0.0	-0.0	-0.0	-0.0	-0.0	-0.0	168607.0625	-26887.01171875	-1497.583251953125
0.334	-0.0	-0.0	-0.0	-0.0	-0.0	-0.0	0.55107581615448	2.731729507446289	-503.7129211425781	-0.0	-0.0	-0.0	-0.0	-0.0	-0.0	169034.375	-26430.404296875	-1580.698486328125
0.3345	-0.0	-0.0	-0.0	-0.0	-0.0	-0.0	-0.1710060685873031	2.886423110961914	-503.6638488769531	-0.0	-0.0	-0.0	-0.0	-0.0	-0.0	169303.921875	-26318.69921875	-1765.471435546875
0.335	-0.0	-0.0	-0.0	-0.0	-0.0	-0.0	-0.5930445194244385	3.166498899459839	-503.8775329589844	-0.0	-0.0	-0.0	-0.0	-0.0	-0.0	169649.296875	-26261.1328125	-1756.9388427734375
0.3355	-0.0	-0.0	-0.0	-0.0	-0.0	-0.0	-0.5732715129852295	3.0504322052001958	-503.6907653808594	-0.0	-0.0	-0.0	-0.0	-0.0	-0.0	169757.09375	-25911.138671875	-1722.38671875
0.336	-0.0	-0.0	-0.0	-0.0	-0.0	-0.0	-0.4435539245605469	3.648349285125733	-503.15435791015625	-0.0	-0.0	-0.0	-0.0	-0.0	-0.0	169744.0	-25814.69140625	-1571.5828857421875
0.3365	-0.0	-0.0	-0.0	-0.0	-0.0	-0.0	-0.1843811571598053	3.308598756790161	-502.3744201660156	-0.0	-0.0	-0.0	-0.0	-0.0	-0.0	169635.1875	-25675.12890625	-1432.1785888671875
0.337	-0.0	-0.0	-0.0	-0.0	-0.0	-0.0	-0.4027409553527832	3.559393882751465	-502.9947509765625	-0.0	-0.0	-0.0	-0.0	-0.0	-0.0	170023.03125	-25718.33203125	-1427.9945068359375
0.3375	-0.0	-0.0	-0.0	-0.0	-0.0	-0.0	-0.587478756904602	3.580631971359253	-503.21295166015625	-0.0	-0.0	-0.0	-0.0	-0.0	-0.0	170412.734375	-25737.88671875	-1477.868896484375
0.338	-0.0	-0.0	-0.0	-0.0	-0.0	-0.0	-0.4656527936458587	3.933981895446777	-504.8732299804688	-0.0	-0.0	-0.0	-0.0	-0.0	-0.0	170765.59375	-25626.646484375	-1567.7784423828125
0.3385	-0.0	-0.0	-0.0	-0.0	-0.0	-0.0	-0.5173162817955017	4.3607611656188965	-504.0867004394531	-0.0	-0.0	-0.0	-0.0	-0.0	-0.0	170980.890625	-25612.689453125	-1452.7982177734375
0.339	-0.0	-0.0	-0.0	-0.0	-0.0	-0.0	-0.4359254539012909	5.670166015625	-505.2919006347656	-0.0	-0.0	-0.0	-0.0	-0.0	-0.0	171450.84375	-25491.541015625	-1422.7437744140625
0.3395	-0.0	-0.0	-0.0	-0.0	-0.0	-0.0	-0.1851584613323211	6.40717363357544	-505.4426574707031	-0.0	-0.0	-0.0	-0.0	-0.0	-0.0	171553.640625	-25461.232421875	-1408.8397216796875
0.34	-0.0	-0.0	-0.0	-0.0	-0.0	-0.0	-0.483965665102005	6.367013931274414	-506.9681396484375	-0.0	-0.0	-0.0	-0.0	-0.0	-0.0	171911.28125	-25377.42578125	-1244.6165771484375
0.3405	-0.0	-0.0	-0.0	-0.0	-0.0	-0.0	-0.1208587884902954	5.821229457855225	-506.7461242675781	-0.0	-0.0	-0.0	-0.0	-0.0	-0.0	172073.234375	-25119.447265625	-1142.0166015625
0.341	-0.0	-0.0	-0.0	-0.0	-0.0	-0.0	-0.3951261043548584	5.516050815582275	-507.0322570800781	-0.0	-0.0	-0.0	-0.0	-0.0	-0.0	172162.3125	-25034.146484375	-1244.76953125
0.3415	-0.0	-0.0	-0.0	-0.0	-0.0	-0.0	-0.4601520895957947	5.70088005065918	-507.7317810058594	-0.0	-0.0	-0.0	-0.0	-0.0	-0.0	172644.625	-24767.830078125	-1198.8853759765625
0.342	-0.0	-0.0	-0.0	-0.0	-0.0	-0.0	-0.7498287558555603	5.757687091827393	-509.2873840332031	-0.0	-0.0	-0.0	-0.0	-0.0	-0.0	173117.203125	-24794.544921875	-1247.7779541015625
0.3425	-0.0	-0.0	-0.0	-0.0	-0.0	-0.0	-1.4679946899414062	6.134109020233154	-509.0294799804688	-0.0	-0.0	-0.0	-0.0	-0.0	-0.0	173132.5	-24258.37109375	-1377.43701171875
0.343	-0.0	-0.0	-0.0	-0.0	-0.0	-0.0	-1.96901273727417	6.191167831420898	-511.157958984375	-0.0	-0.0	-0.0	-0.0	-0.0	-0.0	173478.03125	-23946.001953125	-1483.02978515625
0.3435	-0.0	-0.0	-0.0	-0.0	-0.0	-0.0	-2.4839019775390625	6.0632004737854	-509.7613525390625	-0.0	-0.0	-0.0	-0.0	-0.0	-0.0	173675.53125	-23524.083984375	-1661.4127197265625
0.34400000000000003	-0.0	-0.0	-0.0	-0.0	-0.0	-0.0	-3.5793635845184326	5.966168403625488	-510.4244689941406	-0.0	-0.0	-0.0	-0.0	-0.0	-0.0	173394.171875	-23491.400390625	-1912.8646240234373
0.34450000000000003	-0.0	-0.0	-0.0	-0.0	-0.0	-0.0	-4.643700122833252	5.564266204833984	-509.1483154296875	-0.0	-0.0	-0.0	-0.0	-0.0	-0.0	173431.578125	-23021.201171875	-2232.762939453125
0.34500000000000003	-0.0	-0.0	-0.0	-0.0	-0.0	-0.0	-5.184988498687744	5.357179164886475	-511.0376281738281	-0.0	-0.0	-0.0	-0.0	-0.0	-0.0	173626.296875	-22954.39453125	-2256.793701171875
0.34550000000000003	-0.0	-0.0	-0.0	-0.0	-0.0	-0.0	-5.124217987060547	4.985526084899902	-511.4336242675781	-0.0	-0.0	-0.0	-0.0	-0.0	-0.0	173926.84375	-22517.603515625	-2246.697509765625
0.34600000000000003	-0.0	-0.0	-0.0	-0.0	-0.0	-0.0	-5.154709339141846	5.111545085906982	-511.3885498046875	-0.0	-0.0	-0.0	-0.0	-0.0	-0.0	173765.125	-22467.30078125	-2365.415771484375
0.34650000000000003	-0.0	-0.0	-0.0	-0.0	-0.0	-0.0	-5.3621978759765625	4.975824356079102	-511.587158203125	-0.0	-0.0	-0.0	-0.0	-0.0	-0.0	174007.328125	-22446.52734375	-2303.119384765625
0.34700000000000003	-0.0	-0.0	-0.0	-0.0	-0.0	-0.0	-4.938094139099121	5.073636531829834	-511.3901977539063	-0.0	-0.0	-0.0	-0.0	-0.0	-0.0	174478.359375	-22364.953125	-2345.682373046875
0.34750000000000003	-0.0	-0.0	-0.0	-0.0	-0.0	-0.0	-4.928384304046631	5.053926944732666	-513.4466552734375	-0.0	-0.0	-0.0	-0.0	-0.0	-0.0	174737.765625	-22124.732421875	-2220.4228515625
0.34800000000000003	-0.0	-0.0	-0.0	-0.0	-0.0	-0.0	-4.741016387939453	4.965969085693359	-514.49462890625	-0.0	-0.0	-0.0	-0.0	-0.0	-0.0	175066.0625	-22120.091796875	-2167.58544921875
0.34850000000000003	-0.0	-0.0	-0.0	-0.0	-0.0	-0.0	-4.169406890869141	4.789622783660889	-516.3151245117188	-0.0	-0.0	-0.0	-0.0	-0.0	-0.0	175723.125	-21881.5703125	-1943.0428466796875
0.34900000000000003	-0.0	-0.0	-0.0	-0.0	-0.0	-0.0	-3.9836020469665527	4.652237415313721	-517.288330078125	-0.0	-0.0	-0.0	-0.0	-0.0	-0.0	176133.890625	-21670.78125	-2074.697509765625
0.34950000000000003	-0.0	-0.0	-0.0	-0.0	-0.0	-0.0	-4.198114395141602	4.603114128112793	-517.4735717773438	-0.0	-0.0	-0.0	-0.0	-0.0	-0.0	176268.609375	-21424.2421875	-2072.1884765625
0.35000000000000003	-0.0	-0.0	-0.0	-0.0	-0.0	-0.0	-4.474606037139893	4.338293075561523	-516.4368896484375	-0.0	-0.0	-0.0	-0.0	-0.0	-0.0	176340.515625	-21239.705078125	-2292.201171875
0.35050000000000003	-0.0	-0.0	-0.0	-0.0	-0.0	-0.0	-4.868391036987305	3.8968095779418954	-517.9032592773438	-0.0	-0.0	-0.0	-0.0	-0.0	-0.0	176769.8125	-21028.501953125	-2550.001220703125
0.35100000000000003	-0.0	-0.0	-0.0	-0.0	-0.0	-0.0	-5.4892120361328125	3.698701858520508	-517.5281372070312	-0.0	-0.0	-0.0	-0.0	-0.0	-0.0	176738.53125	-20655.822265625	-2732.05615234375
0.35150000000000003	-0.0	-0.0	-0.0	-0.0	-0.0	-0.0	-5.805064678192139	3.632124423980713	-517.8350830078125	-0.0	-0.0	-0.0	-0.0	-0.0	-0.0	176977.71875	-20331.4609375	-2969.60986328125
0.352	-0.0	-0.0	-0.0	-0.0	-0.0	-0.0	-6.021215915679932	3.273322105407715	-518.0972290039062	-0.0	-0.0	-0.0	-0.0	-0.0	-0.0	177385.78125	-19979.908203125	-3029.182861328125
0.3525	-0.0	-0.0	-0.0	-0.0	-0.0	-0.0	-5.816179275512695	3.09623122215271	-519.3408813476562	-0.0	-0.0	-0.0	-0.0	-0.0	-0.0	178097.625	-19778.990234375	-2982.70556640625
0.353	-0.0	-0.0	-0.0	-0.0	-0.0	-0.0	-5.843538284301758	2.676826000213623	-521.4803466796875	-0.0	-0.0	-0.0	-0.0	-0.0	-0.0	178601.21875	-19554.560546875	-3109.072998046875
0.3535	-0.0	-0.0	-0.0	-0.0	-0.0	-0.0	-6.275410175323486	2.9260928630828857	-521.4963989257812	-0.0	-0.0	-0.0	-0.0	-0.0	-0.0	178860.078125	-19097.83984375	-3194.531494140625
0.354	-0.0	-0.0	-0.0	-0.0	-0.0	-0.0	-6.857631206512451	3.091259002685547	-521.7698974609375	-0.0	-0.0	-0.0	-0.0	-0.0	-0.0	179011.9375	-18909.9453125	-3643.7734375
0.3545	-0.0	-0.0	-0.0	-0.0	-0.0	-0.0	-7.983970642089844	3.117880582809448	-521.0394897460938	-0.0	-0.0	-0.0	-0.0	-0.0	-0.0	179199.296875	-18792.501953125	-3959.14453125
0.355	-0.0	-0.0	-0.0	-0.0	-0.0	-0.0	-8.315016746520996	3.4946298599243164	-521.7261962890625	-0.0	-0.0	-0.0	-0.0	-0.0	-0.0	179038.015625	-18426.6328125	-4188.56201171875
0.3555	-0.0	-0.0	-0.0	-0.0	-0.0	-0.0	-8.806418418884277	3.5568127632141118	-519.9903564453125	-0.0	-0.0	-0.0	-0.0	-0.0	-0.0	179004.65625	-18089.5234375	-4107.7978515625
0.356	-0.0	-0.0	-0.0	-0.0	-0.0	-0.0	-8.782367706298828	3.9224729537963863	-519.736083984375	-0.0	-0.0	-0.0	-0.0	-0.0	-0.0	178907.75	-17830.3828125	-4171.01416015625
0.3565	-0.0	-0.0	-0.0	-0.0	-0.0	-0.0	-9.251845359802246	3.4187352657318115	-520.6817626953125	-0.0	-0.0	-0.0	-0.0	-0.0	-0.0	178775.953125	-17266.28125	-4408.7666015625
0.357	-0.0	-0.0	-0.0	-0.0	-0.0	-0.0	-9.93560791015625	3.5205078125	-517.9908447265625	-0.0	-0.0	-0.0	-0.0	-0.0	-0.0	178618.09375	-17254.6171875	-4621.00537109375
0.3575	-0.0	-0.0	-0.0	-0.0	-0.0	-0.0	-10.657862663269045	3.886154174804688	-517.9911499023438	-0.0	-0.0	-0.0	-0.0	-0.0	-0.0	178465.8125	-16804.162109375	-4896.95703125
0.358	-0.0	-0.0	-0.0	-0.0	-0.0	-0.0	-10.74668025970459	4.226829528808594	-517.2930908203125	-0.0	-0.0	-0.0	-0.0	-0.0	-0.0	178389.90625	-16476.841796875	-4981.65380859375
0.3585	-0.0	-0.0	-0.0	-0.0	-0.0	-0.0	-10.771968841552734	4.391014099121094	-518.3895263671875	-0.0	-0.0	-0.0	-0.0	-0.0	-0.0	178221.703125	-16328.4794921875	-4930.77587890625
0.359	-0.0	-0.0	-0.0	-0.0	-0.0	-0.0	-10.696118354797363	4.8705735206604	-517.344482421875	-0.0	-0.0	-0.0	-0.0	-0.0	-0.0	178382.734375	-16166.5458984375	-4960.2646484375
0.3595	-0.0	-0.0	-0.0	-0.0	-0.0	-0.0	-10.518759727478027	5.4499335289001465	-516.6929931640625	-0.0	-0.0	-0.0	-0.0	-0.0	-0.0	178642.5	-15658.1572265625	-4862.71923828125
0.36	-0.0	-0.0	-0.0	-0.0	-0.0	-0.0	-10.747218132019045	5.613122463226318	-517.83642578125	-0.0	-0.0	-0.0	-0.0	-0.0	-0.0	178710.140625	-15529.3525390625	-4900.7841796875
0.3605	-0.0	-0.0	-0.0	-0.0	-0.0	-0.0	-10.618570327758787	6.043384075164795	-516.5530395507812	-0.0	-0.0	-0.0	-0.0	-0.0	-0.0	178931.53125	-15265.169921875	-4972.509765625
0.361	-0.0	-0.0	-0.0	-0.0	-0.0	-0.0	-11.723310470581056	6.04332160949707	-517.1466674804688	-0.0	-0.0	-0.0	-0.0	-0.0	-0.0	178523.9375	-14927.787109375	-5172.85546875
0.3615	-0.0	-0.0	-0.0	-0.0	-0.0	-0.0	-12.265981674194336	6.10777759552002	-516.94580078125	-0.0	-0.0	-0.0	-0.0	-0.0	-0.0	178342.234375	-14642.5224609375	-5342.1376953125
0.362	-0.0	-0.0	-0.0	-0.0	-0.0	-0.0	-12.587043762207031	5.829231262207031	-515.5341796875	-0.0	-0.0	-0.0	-0.0	-0.0	-0.0	178196.75	-14235.5380859375	-5584.310546875
